<svg data-v-fde0c5aa="" xmlns="http://www.w3.org/2000/svg" viewBox="0 0 300 300" class="iconAbove"><!----><defs data-v-fde0c5aa=""><!----></defs><rect data-v-fde0c5aa="" fill="transparent" x="0" y="0" width="300px" height="300px" class="logo-background-square"></rect><defs data-v-fde0c5aa=""><!----></defs><g data-v-fde0c5aa="" id="29f86861-b966-41ee-b5f7-098110b3d061" fill="#F1EEEB" transform="matrix(3.5101930750806787,0,0,3.5101930750806787,18.666126543595368,173.4093426401578)"><path d="M7.04 2.58L7.04 1.86L0.38 1.86L0.38 3.60L0.67 3.60L1.02 2.58L3.32 2.58L3.32 10.26L4.10 10.26L4.10 2.58ZM14.27 10.26L14.27 9.56C14.07 9.63 13.85 9.70 13.61 9.70C13.29 9.70 13.15 9.52 13.15 9.23L13.15 5.96C13.15 4.41 12.21 3.58 10.53 3.58C10.02 3.58 9.34 3.71 8.75 3.89L8.75 5.46L9.06 5.46L9.41 4.42C9.80 4.34 10.21 4.28 10.53 4.28C11.79 4.28 12.38 4.82 12.38 5.96L12.38 6.55L10.36 6.55C8.81 6.55 8.08 7.32 8.08 8.34C8.08 9.53 9.02 10.40 10.81 10.40C11.45 10.40 12.08 10.26 12.61 10.04C12.80 10.28 13.12 10.40 13.40 10.40C13.72 10.40 14.03 10.33 14.27 10.26ZM12.38 9.41C11.91 9.59 11.38 9.72 10.81 9.72C9.51 9.72 8.86 9.18 8.86 8.34C8.86 7.67 9.30 7.22 10.36 7.22L12.38 7.22ZM20.15 5.46L20.15 3.89C19.56 3.71 18.87 3.58 18.37 3.58C17.65 3.58 16.69 3.78 15.97 3.98L15.78 4.03L16.03 4.80L16.03 10.26L16.80 10.26L16.80 4.51C17.32 4.37 17.85 4.28 18.37 4.28C18.69 4.28 19.10 4.34 19.49 4.42L19.84 5.46ZM27.31 10.26L27.31 9.56C27.12 9.63 26.89 9.70 26.66 9.70C26.33 9.70 26.19 9.52 26.19 9.23L26.19 5.96C26.19 4.41 25.26 3.58 23.58 3.58C23.07 3.58 22.39 3.71 21.80 3.89L21.80 5.46L22.11 5.46L22.46 4.42C22.85 4.34 23.25 4.28 23.58 4.28C24.84 4.28 25.42 4.82 25.42 5.96L25.42 6.55L23.41 6.55C21.85 6.55 21.13 7.32 21.13 8.34C21.13 9.53 22.06 10.40 23.86 10.40C24.50 10.40 25.13 10.26 25.66 10.04C25.84 10.28 26.17 10.40 26.45 10.40C26.77 10.40 27.08 10.33 27.31 10.26ZM25.42 9.41C24.96 9.59 24.43 9.72 23.86 9.72C22.55 9.72 21.91 9.18 21.91 8.34C21.91 7.67 22.34 7.22 23.41 7.22L25.42 7.22ZM38.61 6.36L38.61 5.66L34.16 5.66L34.16 2.56L38.61 2.56L38.61 1.86L33.10 1.86L33.38 2.66L33.38 10.26L34.16 10.26L34.16 6.36ZM41.52 1.40C41.52 1.04 41.23 0.73 40.87 0.73C40.50 0.73 40.19 1.04 40.19 1.40C40.19 1.76 40.50 2.06 40.87 2.06C41.23 2.06 41.52 1.76 41.52 1.40ZM42.29 10.26L42.29 9.95L41.24 9.60L41.24 3.72L40.47 3.72L40.47 10.26ZM47.35 10.29L47.35 9.59C47.15 9.66 46.84 9.70 46.65 9.70C45.53 9.70 45.15 9.24 45.15 8.26L45.15 4.41L47.35 4.41L47.35 3.72L45.15 3.72L45.15 1.82L44.38 1.93L44.38 3.72L42.98 3.72L42.98 4.41L44.38 4.41L44.38 8.26C44.38 9.63 45.11 10.40 46.65 10.40C46.84 10.40 47.15 10.36 47.35 10.29ZM55.12 10.26L55.12 9.95L54.08 9.60L54.08 5.96C54.08 4.41 53.14 3.58 51.46 3.58C50.75 3.58 49.78 3.78 49.07 3.98L48.87 4.03L49.13 4.80L49.13 10.26L49.90 10.26L49.90 4.51C50.41 4.37 50.95 4.28 51.46 4.28C52.72 4.28 53.31 4.82 53.31 5.96L53.31 10.26ZM62.08 7C62.08 4.79 60.91 3.58 59.14 3.58C57.36 3.58 56.15 4.79 56.15 7C56.15 9.28 57.50 10.40 59.60 10.40C60.19 10.40 61.03 10.26 61.56 10.08L61.56 9.38C61.03 9.56 60.19 9.70 59.60 9.70C58.04 9.70 57.04 8.96 56.95 7.22L62.08 7.22C62.08 7.15 62.08 7.07 62.08 7ZM61.31 6.55L56.97 6.55C57.11 5.07 57.93 4.28 59.14 4.28C60.27 4.28 61.17 5.07 61.31 6.55ZM68.29 8.48C68.29 7.28 67.40 6.57 65.86 6.57C64.74 6.57 64.27 6.10 64.27 5.39C64.27 4.86 64.69 4.28 66.09 4.28C66.58 4.28 67.06 4.35 67.51 4.47L67.84 5.46L68.15 5.46L68.15 3.95C67.54 3.75 66.82 3.58 66.09 3.58C64.22 3.58 63.48 4.48 63.48 5.42C63.48 6.58 64.37 7.31 65.86 7.31C67.03 7.31 67.49 7.77 67.49 8.51C67.49 9.11 67.06 9.70 65.58 9.70C64.85 9.70 64.18 9.58 63.43 9.32L63.43 10.02C64.18 10.28 64.85 10.40 65.58 10.40C67.54 10.40 68.29 9.52 68.29 8.48ZM74.45 8.48C74.45 7.28 73.56 6.57 72.02 6.57C70.90 6.57 70.43 6.10 70.43 5.39C70.43 4.86 70.85 4.28 72.25 4.28C72.74 4.28 73.22 4.35 73.67 4.47L74.00 5.46L74.31 5.46L74.31 3.95C73.70 3.75 72.98 3.58 72.25 3.58C70.38 3.58 69.64 4.48 69.64 5.42C69.64 6.58 70.53 7.31 72.02 7.31C73.19 7.31 73.65 7.77 73.65 8.51C73.65 9.11 73.22 9.70 71.74 9.70C71.01 9.70 70.34 9.58 69.59 9.32L69.59 10.02C70.34 10.28 71.01 10.40 71.74 10.40C73.70 10.40 74.45 9.52 74.45 8.48Z"></path></g><defs data-v-fde0c5aa=""><linearGradient data-v-fde0c5aa="" gradientTransform="rotate(25)" id="40681d5a-62cd-4141-aa7a-0b06fc47ce15" x1="0%" y1="0%" x2="100%" y2="0%"><stop data-v-fde0c5aa="" offset="0%" stop-color="#645B4E" stop-opacity="1"></stop><stop data-v-fde0c5aa="" offset="100%" stop-color="#B39984" stop-opacity="1"></stop></linearGradient></defs><g data-v-fde0c5aa="" id="80e0f8e7-9394-43a9-a666-c5f44196e255" stroke="none" fill="url(#40681d5a-62cd-4141-aa7a-0b06fc47ce15)" transform="matrix(0.6959009347627334,0,0,0.6959009347627334,115.20495956666039,89.23317019064999)"><path d="M66.45 17.22L72.94 13a1.16 1.16 0 0 1 1.27 0A44.24 44.24 0 0 1 51.1 94.24v3.18a1.34 1.34 0 0 1-2.1 1.12l-11.45-7.48a1.34 1.34 0 0 1 0-2.24L49 81.34a1.34 1.34 0 0 1 2.07 1.12v3.13a35.6 35.6 0 0 0 15.45-67.11.73.73 0 0 1-.07-1.26zM25.79 87a1.16 1.16 0 0 0 1.27 0l6.49-4.23a.73.73 0 0 0-.07-1.26 35.6 35.6 0 0 1 15.42-67.1v3.13a1.34 1.34 0 0 0 2.1 1.12l11.49-7.48a1.34 1.34 0 0 0 0-2.24L51 1.46a1.34 1.34 0 0 0-2.1 1.12v3.18A44.24 44.24 0 0 0 25.79 87zm35.9-51a28.85 28.85 0 0 1-10.14 0l-4.29-.77-.3-.05h-.85a5.4 5.4 0 0 0-3.45 1.24 5.57 5.57 0 0 0-1 7.33l6.49 9.8a.39.39 0 0 1-.18.58l-4.86 2a4.85 4.85 0 0 0-2.67 2.77l-3.9 10.42a2.63 2.63 0 0 0 .21 2.45 2.6 2.6 0 0 0 2.09 1.05 3.25 3.25 0 0 0 4.05-1.95l3.38-9 8.87-3.68a1.68 1.68 0 0 1 .65-.13 1.7 1.7 0 0 1 1.35.68l2.43 3.22a4.83 4.83 0 0 0 4.5 1.88l8.6-1.08a3.25 3.25 0 0 0-.42-6.47h-.44l-7.64 1-4.07-5.4-6.62-10A30.46 30.46 0 0 0 57 42a30.23 30.23 0 0 0 5.23-.46l1.42-.25a2.77 2.77 0 0 0-.94-5.46zM42.2 32.14a5.08 5.08 0 1 0-5.08 5.08 5.08 5.08 0 0 0 5.08-5.08z"></path></g><!----></svg>